<svg xmlns="http://www.w3.org/2000/svg" xmlns:xlink="http://www.w3.org/1999/xlink" viewBox="127.07 37 31.988 31.987">
  <defs>
    <style>
      .cls-1 {
        fill: url(#linear-gradient);
      }
    </style>
    <linearGradient id="linear-gradient" x1="0.099" x2="1" y2="1" gradientUnits="objectBoundingBox">
      <stop offset="0" stop-color="#e200ff"/>
      <stop offset="1" stop-color="#ff8900"/>
    </linearGradient>
  </defs>
  <g id="AFLogo" transform="translate(127.083 37.022)">
    <g id="Ebene_1" data-name="Ebene 1" transform="translate(-0.014 -0.022)">
      <path id="Path_166" data-name="Path 166" class="cls-1" d="M30.2,31.987a1.777,1.777,0,0,1-1.777-1.777V15.995A12.441,12.441,0,1,0,14.2,28.308V24.7a8.886,8.886,0,1,1,10.663-8.708l.065,14.217a1.777,1.777,0,1,1-3.554,0L21.31,15.993a5.331,5.331,0,1,0-5.331,5.331A1.777,1.777,0,0,1,17.756,23.1V30.21a1.777,1.777,0,0,1-1.774,1.777A15.994,15.994,0,1,1,31.974,15.995V30.21A1.777,1.777,0,0,1,30.2,31.987Z" transform="translate(0.014 0)"/>
    </g>
  </g>
</svg>
